<mxfile host="app.diagrams.net" modified="2022-08-16T23:53:27.244Z" agent="5.0 (Macintosh; Intel Mac OS X 10_15_7) AppleWebKit/537.36 (KHTML, like Gecko) Chrome/103.0.0.0 Safari/537.36" etag="ZW9fRsaiWB1zax_um1Ub" version="20.2.4" type="github">
  <diagram id="GJohtAS3LKYzWnHZU3mV" name="Page-1">
    <mxGraphModel dx="869" dy="470" grid="1" gridSize="10" guides="1" tooltips="1" connect="1" arrows="1" fold="1" page="1" pageScale="1" pageWidth="850" pageHeight="1100" math="0" shadow="0">
      <root>
        <mxCell id="0" />
        <mxCell id="1" parent="0" />
        <mxCell id="JYlKlGi2RT4X8NCZ88H3-1" value="Test" style="swimlane;" vertex="1" parent="1">
          <mxGeometry x="320" y="140" width="200" height="200" as="geometry" />
        </mxCell>
        <mxCell id="JYlKlGi2RT4X8NCZ88H3-4" value="-test()&#xa;-test2()" style="text;strokeColor=none;fillColor=none;align=left;verticalAlign=middle;spacingLeft=4;spacingRight=4;overflow=hidden;points=[[0,0.5],[1,0.5]];portConstraint=eastwest;rotatable=0;" vertex="1" parent="JYlKlGi2RT4X8NCZ88H3-1">
          <mxGeometry x="10" y="60" width="80" height="30" as="geometry" />
        </mxCell>
      </root>
    </mxGraphModel>
  </diagram>
</mxfile>
